<?xml version="1.0" standalone="no"?>
<svg xmlns="http://www.w3.org/2000/svg" version="1.1" width="1584" height="1584">
	<!-- Created with https://api.qrserver.com (QR Code API, see goQR.me/api for information) -->
	<title>QR Code</title>
	<desc>https://aleksandra.andryka.eu/</desc>
	<rect style="fill:rgb(255, 255, 255);fill-opacity:1" x="0" y="0" width="1584" height="1584" />
	<g id="elements">
		<path style="fill:rgb(0, 0, 0)" d="M 192,192 l 48,0 0,48 -48,0 z M 240,192 l 48,0 0,48 -48,0 z M 288,192 l 48,0 0,48 -48,0 z M 336,192 l 48,0 0,48 -48,0 z M 384,192 l 48,0 0,48 -48,0 z M 432,192 l 48,0 0,48 -48,0 z M 480,192 l 48,0 0,48 -48,0 z M 720,192 l 48,0 0,48 -48,0 z M 768,192 l 48,0 0,48 -48,0 z M 960,192 l 48,0 0,48 -48,0 z M 1056,192 l 48,0 0,48 -48,0 z M 1104,192 l 48,0 0,48 -48,0 z M 1152,192 l 48,0 0,48 -48,0 z M 1200,192 l 48,0 0,48 -48,0 z M 1248,192 l 48,0 0,48 -48,0 z M 1296,192 l 48,0 0,48 -48,0 z M 1344,192 l 48,0 0,48 -48,0 z M 192,240 l 48,0 0,48 -48,0 z M 480,240 l 48,0 0,48 -48,0 z M 576,240 l 48,0 0,48 -48,0 z M 672,240 l 48,0 0,48 -48,0 z M 912,240 l 48,0 0,48 -48,0 z M 1056,240 l 48,0 0,48 -48,0 z M 1344,240 l 48,0 0,48 -48,0 z M 192,288 l 48,0 0,48 -48,0 z M 288,288 l 48,0 0,48 -48,0 z M 336,288 l 48,0 0,48 -48,0 z M 384,288 l 48,0 0,48 -48,0 z M 480,288 l 48,0 0,48 -48,0 z M 624,288 l 48,0 0,48 -48,0 z M 672,288 l 48,0 0,48 -48,0 z M 864,288 l 48,0 0,48 -48,0 z M 1056,288 l 48,0 0,48 -48,0 z M 1152,288 l 48,0 0,48 -48,0 z M 1200,288 l 48,0 0,48 -48,0 z M 1248,288 l 48,0 0,48 -48,0 z M 1344,288 l 48,0 0,48 -48,0 z M 192,336 l 48,0 0,48 -48,0 z M 288,336 l 48,0 0,48 -48,0 z M 336,336 l 48,0 0,48 -48,0 z M 384,336 l 48,0 0,48 -48,0 z M 480,336 l 48,0 0,48 -48,0 z M 576,336 l 48,0 0,48 -48,0 z M 624,336 l 48,0 0,48 -48,0 z M 816,336 l 48,0 0,48 -48,0 z M 912,336 l 48,0 0,48 -48,0 z M 960,336 l 48,0 0,48 -48,0 z M 1056,336 l 48,0 0,48 -48,0 z M 1152,336 l 48,0 0,48 -48,0 z M 1200,336 l 48,0 0,48 -48,0 z M 1248,336 l 48,0 0,48 -48,0 z M 1344,336 l 48,0 0,48 -48,0 z M 192,384 l 48,0 0,48 -48,0 z M 288,384 l 48,0 0,48 -48,0 z M 336,384 l 48,0 0,48 -48,0 z M 384,384 l 48,0 0,48 -48,0 z M 480,384 l 48,0 0,48 -48,0 z M 720,384 l 48,0 0,48 -48,0 z M 816,384 l 48,0 0,48 -48,0 z M 960,384 l 48,0 0,48 -48,0 z M 1056,384 l 48,0 0,48 -48,0 z M 1152,384 l 48,0 0,48 -48,0 z M 1200,384 l 48,0 0,48 -48,0 z M 1248,384 l 48,0 0,48 -48,0 z M 1344,384 l 48,0 0,48 -48,0 z M 192,432 l 48,0 0,48 -48,0 z M 480,432 l 48,0 0,48 -48,0 z M 576,432 l 48,0 0,48 -48,0 z M 672,432 l 48,0 0,48 -48,0 z M 816,432 l 48,0 0,48 -48,0 z M 864,432 l 48,0 0,48 -48,0 z M 912,432 l 48,0 0,48 -48,0 z M 1056,432 l 48,0 0,48 -48,0 z M 1344,432 l 48,0 0,48 -48,0 z M 192,480 l 48,0 0,48 -48,0 z M 240,480 l 48,0 0,48 -48,0 z M 288,480 l 48,0 0,48 -48,0 z M 336,480 l 48,0 0,48 -48,0 z M 384,480 l 48,0 0,48 -48,0 z M 432,480 l 48,0 0,48 -48,0 z M 480,480 l 48,0 0,48 -48,0 z M 576,480 l 48,0 0,48 -48,0 z M 672,480 l 48,0 0,48 -48,0 z M 768,480 l 48,0 0,48 -48,0 z M 864,480 l 48,0 0,48 -48,0 z M 960,480 l 48,0 0,48 -48,0 z M 1056,480 l 48,0 0,48 -48,0 z M 1104,480 l 48,0 0,48 -48,0 z M 1152,480 l 48,0 0,48 -48,0 z M 1200,480 l 48,0 0,48 -48,0 z M 1248,480 l 48,0 0,48 -48,0 z M 1296,480 l 48,0 0,48 -48,0 z M 1344,480 l 48,0 0,48 -48,0 z M 912,528 l 48,0 0,48 -48,0 z M 960,528 l 48,0 0,48 -48,0 z M 192,576 l 48,0 0,48 -48,0 z M 240,576 l 48,0 0,48 -48,0 z M 288,576 l 48,0 0,48 -48,0 z M 336,576 l 48,0 0,48 -48,0 z M 384,576 l 48,0 0,48 -48,0 z M 480,576 l 48,0 0,48 -48,0 z M 528,576 l 48,0 0,48 -48,0 z M 576,576 l 48,0 0,48 -48,0 z M 624,576 l 48,0 0,48 -48,0 z M 672,576 l 48,0 0,48 -48,0 z M 768,576 l 48,0 0,48 -48,0 z M 816,576 l 48,0 0,48 -48,0 z M 864,576 l 48,0 0,48 -48,0 z M 912,576 l 48,0 0,48 -48,0 z M 1008,576 l 48,0 0,48 -48,0 z M 1104,576 l 48,0 0,48 -48,0 z M 1200,576 l 48,0 0,48 -48,0 z M 1296,576 l 48,0 0,48 -48,0 z M 192,624 l 48,0 0,48 -48,0 z M 240,624 l 48,0 0,48 -48,0 z M 288,624 l 48,0 0,48 -48,0 z M 576,624 l 48,0 0,48 -48,0 z M 624,624 l 48,0 0,48 -48,0 z M 720,624 l 48,0 0,48 -48,0 z M 960,624 l 48,0 0,48 -48,0 z M 1104,624 l 48,0 0,48 -48,0 z M 1296,624 l 48,0 0,48 -48,0 z M 336,672 l 48,0 0,48 -48,0 z M 480,672 l 48,0 0,48 -48,0 z M 576,672 l 48,0 0,48 -48,0 z M 624,672 l 48,0 0,48 -48,0 z M 768,672 l 48,0 0,48 -48,0 z M 912,672 l 48,0 0,48 -48,0 z M 1008,672 l 48,0 0,48 -48,0 z M 1104,672 l 48,0 0,48 -48,0 z M 1200,672 l 48,0 0,48 -48,0 z M 1296,672 l 48,0 0,48 -48,0 z M 1344,672 l 48,0 0,48 -48,0 z M 288,720 l 48,0 0,48 -48,0 z M 336,720 l 48,0 0,48 -48,0 z M 528,720 l 48,0 0,48 -48,0 z M 576,720 l 48,0 0,48 -48,0 z M 624,720 l 48,0 0,48 -48,0 z M 672,720 l 48,0 0,48 -48,0 z M 720,720 l 48,0 0,48 -48,0 z M 864,720 l 48,0 0,48 -48,0 z M 960,720 l 48,0 0,48 -48,0 z M 1056,720 l 48,0 0,48 -48,0 z M 1344,720 l 48,0 0,48 -48,0 z M 192,768 l 48,0 0,48 -48,0 z M 240,768 l 48,0 0,48 -48,0 z M 384,768 l 48,0 0,48 -48,0 z M 480,768 l 48,0 0,48 -48,0 z M 528,768 l 48,0 0,48 -48,0 z M 624,768 l 48,0 0,48 -48,0 z M 720,768 l 48,0 0,48 -48,0 z M 768,768 l 48,0 0,48 -48,0 z M 816,768 l 48,0 0,48 -48,0 z M 864,768 l 48,0 0,48 -48,0 z M 1008,768 l 48,0 0,48 -48,0 z M 1056,768 l 48,0 0,48 -48,0 z M 1152,768 l 48,0 0,48 -48,0 z M 1248,768 l 48,0 0,48 -48,0 z M 1296,768 l 48,0 0,48 -48,0 z M 1344,768 l 48,0 0,48 -48,0 z M 192,816 l 48,0 0,48 -48,0 z M 288,816 l 48,0 0,48 -48,0 z M 336,816 l 48,0 0,48 -48,0 z M 528,816 l 48,0 0,48 -48,0 z M 576,816 l 48,0 0,48 -48,0 z M 624,816 l 48,0 0,48 -48,0 z M 672,816 l 48,0 0,48 -48,0 z M 720,816 l 48,0 0,48 -48,0 z M 768,816 l 48,0 0,48 -48,0 z M 816,816 l 48,0 0,48 -48,0 z M 960,816 l 48,0 0,48 -48,0 z M 1104,816 l 48,0 0,48 -48,0 z M 1200,816 l 48,0 0,48 -48,0 z M 1296,816 l 48,0 0,48 -48,0 z M 192,864 l 48,0 0,48 -48,0 z M 384,864 l 48,0 0,48 -48,0 z M 480,864 l 48,0 0,48 -48,0 z M 528,864 l 48,0 0,48 -48,0 z M 576,864 l 48,0 0,48 -48,0 z M 672,864 l 48,0 0,48 -48,0 z M 816,864 l 48,0 0,48 -48,0 z M 864,864 l 48,0 0,48 -48,0 z M 912,864 l 48,0 0,48 -48,0 z M 960,864 l 48,0 0,48 -48,0 z M 1008,864 l 48,0 0,48 -48,0 z M 1056,864 l 48,0 0,48 -48,0 z M 1104,864 l 48,0 0,48 -48,0 z M 1152,864 l 48,0 0,48 -48,0 z M 1200,864 l 48,0 0,48 -48,0 z M 1296,864 l 48,0 0,48 -48,0 z M 1344,864 l 48,0 0,48 -48,0 z M 192,912 l 48,0 0,48 -48,0 z M 432,912 l 48,0 0,48 -48,0 z M 768,912 l 48,0 0,48 -48,0 z M 912,912 l 48,0 0,48 -48,0 z M 1008,912 l 48,0 0,48 -48,0 z M 1056,912 l 48,0 0,48 -48,0 z M 1104,912 l 48,0 0,48 -48,0 z M 1152,912 l 48,0 0,48 -48,0 z M 1344,912 l 48,0 0,48 -48,0 z M 192,960 l 48,0 0,48 -48,0 z M 288,960 l 48,0 0,48 -48,0 z M 384,960 l 48,0 0,48 -48,0 z M 480,960 l 48,0 0,48 -48,0 z M 624,960 l 48,0 0,48 -48,0 z M 768,960 l 48,0 0,48 -48,0 z M 816,960 l 48,0 0,48 -48,0 z M 864,960 l 48,0 0,48 -48,0 z M 912,960 l 48,0 0,48 -48,0 z M 960,960 l 48,0 0,48 -48,0 z M 1008,960 l 48,0 0,48 -48,0 z M 1056,960 l 48,0 0,48 -48,0 z M 1104,960 l 48,0 0,48 -48,0 z M 1152,960 l 48,0 0,48 -48,0 z M 1248,960 l 48,0 0,48 -48,0 z M 576,1008 l 48,0 0,48 -48,0 z M 624,1008 l 48,0 0,48 -48,0 z M 672,1008 l 48,0 0,48 -48,0 z M 720,1008 l 48,0 0,48 -48,0 z M 912,1008 l 48,0 0,48 -48,0 z M 960,1008 l 48,0 0,48 -48,0 z M 1152,1008 l 48,0 0,48 -48,0 z M 1200,1008 l 48,0 0,48 -48,0 z M 192,1056 l 48,0 0,48 -48,0 z M 240,1056 l 48,0 0,48 -48,0 z M 288,1056 l 48,0 0,48 -48,0 z M 336,1056 l 48,0 0,48 -48,0 z M 384,1056 l 48,0 0,48 -48,0 z M 432,1056 l 48,0 0,48 -48,0 z M 480,1056 l 48,0 0,48 -48,0 z M 576,1056 l 48,0 0,48 -48,0 z M 624,1056 l 48,0 0,48 -48,0 z M 672,1056 l 48,0 0,48 -48,0 z M 864,1056 l 48,0 0,48 -48,0 z M 960,1056 l 48,0 0,48 -48,0 z M 1056,1056 l 48,0 0,48 -48,0 z M 1152,1056 l 48,0 0,48 -48,0 z M 1248,1056 l 48,0 0,48 -48,0 z M 1296,1056 l 48,0 0,48 -48,0 z M 1344,1056 l 48,0 0,48 -48,0 z M 192,1104 l 48,0 0,48 -48,0 z M 480,1104 l 48,0 0,48 -48,0 z M 624,1104 l 48,0 0,48 -48,0 z M 720,1104 l 48,0 0,48 -48,0 z M 768,1104 l 48,0 0,48 -48,0 z M 960,1104 l 48,0 0,48 -48,0 z M 1152,1104 l 48,0 0,48 -48,0 z M 1200,1104 l 48,0 0,48 -48,0 z M 192,1152 l 48,0 0,48 -48,0 z M 288,1152 l 48,0 0,48 -48,0 z M 336,1152 l 48,0 0,48 -48,0 z M 384,1152 l 48,0 0,48 -48,0 z M 480,1152 l 48,0 0,48 -48,0 z M 576,1152 l 48,0 0,48 -48,0 z M 672,1152 l 48,0 0,48 -48,0 z M 720,1152 l 48,0 0,48 -48,0 z M 768,1152 l 48,0 0,48 -48,0 z M 816,1152 l 48,0 0,48 -48,0 z M 864,1152 l 48,0 0,48 -48,0 z M 912,1152 l 48,0 0,48 -48,0 z M 960,1152 l 48,0 0,48 -48,0 z M 1008,1152 l 48,0 0,48 -48,0 z M 1056,1152 l 48,0 0,48 -48,0 z M 1104,1152 l 48,0 0,48 -48,0 z M 1152,1152 l 48,0 0,48 -48,0 z M 1248,1152 l 48,0 0,48 -48,0 z M 1296,1152 l 48,0 0,48 -48,0 z M 192,1200 l 48,0 0,48 -48,0 z M 288,1200 l 48,0 0,48 -48,0 z M 336,1200 l 48,0 0,48 -48,0 z M 384,1200 l 48,0 0,48 -48,0 z M 480,1200 l 48,0 0,48 -48,0 z M 576,1200 l 48,0 0,48 -48,0 z M 720,1200 l 48,0 0,48 -48,0 z M 864,1200 l 48,0 0,48 -48,0 z M 960,1200 l 48,0 0,48 -48,0 z M 1008,1200 l 48,0 0,48 -48,0 z M 1056,1200 l 48,0 0,48 -48,0 z M 1152,1200 l 48,0 0,48 -48,0 z M 1200,1200 l 48,0 0,48 -48,0 z M 1248,1200 l 48,0 0,48 -48,0 z M 1296,1200 l 48,0 0,48 -48,0 z M 1344,1200 l 48,0 0,48 -48,0 z M 192,1248 l 48,0 0,48 -48,0 z M 288,1248 l 48,0 0,48 -48,0 z M 336,1248 l 48,0 0,48 -48,0 z M 384,1248 l 48,0 0,48 -48,0 z M 480,1248 l 48,0 0,48 -48,0 z M 576,1248 l 48,0 0,48 -48,0 z M 816,1248 l 48,0 0,48 -48,0 z M 912,1248 l 48,0 0,48 -48,0 z M 1200,1248 l 48,0 0,48 -48,0 z M 1248,1248 l 48,0 0,48 -48,0 z M 1344,1248 l 48,0 0,48 -48,0 z M 192,1296 l 48,0 0,48 -48,0 z M 480,1296 l 48,0 0,48 -48,0 z M 576,1296 l 48,0 0,48 -48,0 z M 624,1296 l 48,0 0,48 -48,0 z M 672,1296 l 48,0 0,48 -48,0 z M 768,1296 l 48,0 0,48 -48,0 z M 960,1296 l 48,0 0,48 -48,0 z M 1104,1296 l 48,0 0,48 -48,0 z M 1152,1296 l 48,0 0,48 -48,0 z M 1200,1296 l 48,0 0,48 -48,0 z M 1344,1296 l 48,0 0,48 -48,0 z M 192,1344 l 48,0 0,48 -48,0 z M 240,1344 l 48,0 0,48 -48,0 z M 288,1344 l 48,0 0,48 -48,0 z M 336,1344 l 48,0 0,48 -48,0 z M 384,1344 l 48,0 0,48 -48,0 z M 432,1344 l 48,0 0,48 -48,0 z M 480,1344 l 48,0 0,48 -48,0 z M 576,1344 l 48,0 0,48 -48,0 z M 624,1344 l 48,0 0,48 -48,0 z M 720,1344 l 48,0 0,48 -48,0 z M 816,1344 l 48,0 0,48 -48,0 z M 864,1344 l 48,0 0,48 -48,0 z M 1008,1344 l 48,0 0,48 -48,0 z M 1104,1344 l 48,0 0,48 -48,0 z M 1152,1344 l 48,0 0,48 -48,0 z M 1200,1344 l 48,0 0,48 -48,0 z M 1248,1344 l 48,0 0,48 -48,0 z M 1296,1344 l 48,0 0,48 -48,0 z M 1344,1344 l 48,0 0,48 -48,0 z " />
	</g>
</svg>
